<?xml version="1.0" standalone="no"?>
<!DOCTYPE svg PUBLIC "-//W3C//DTD SVG 20010904//EN"
 "http://www.w3.org/TR/2001/REC-SVG-20010904/DTD/svg10.dtd">
<svg version="1.0" xmlns="http://www.w3.org/2000/svg"
 width="512.000000pt" height="512.000000pt" viewBox="0 0 512.000000 512.000000"
 preserveAspectRatio="xMidYMid meet">
<metadata>
Created by potrace 1.11, written by Peter Selinger 2001-2013
</metadata>
<g transform="translate(0.000000,512.000000) scale(0.100000,-0.100000)"
fill="#000000" stroke="none">
<path d="M835 3494 c-118 -31 -240 -122 -309 -232 -74 -118 -79 -291 -10 -407
52 -89 144 -154 404 -285 247 -124 297 -162 336 -256 20 -47 25 -164 9 -229
-36 -159 -146 -235 -336 -236 -90 0 -155 12 -228 43 -79 33 -99 55 -146 155
-25 52 -45 97 -45 99 0 2 -14 33 -30 69 -26 56 -34 66 -53 63 -25 -3 -25 1
-12 -208 8 -143 12 -181 22 -191 16 -16 158 -71 232 -90 89 -23 241 -31 325
-18 189 31 363 162 417 315 18 49 20 76 17 155 -10 213 -98 308 -448 484 -205
103 -290 167 -331 247 -39 76 -41 195 -6 280 19 45 81 114 121 135 92 49 234
50 330 4 84 -40 110 -66 134 -136 77 -213 89 -240 114 -240 20 0 23 4 22 40
-3 71 -16 279 -19 305 -2 14 -4 28 -4 32 -2 18 -173 85 -261 104 -61 12 -193
11 -245 -2z"/>
<path d="M1640 3446 l0 -34 77 -19 77 -19 263 -674 c144 -371 284 -731 311
-800 45 -118 49 -124 76 -125 l29 0 315 806 315 805 66 15 c65 14 66 15 67 47
l1 32 -241 -2 -240 -3 1 -22 c0 -13 1 -27 2 -32 1 -5 49 -16 108 -25 59 -9
109 -19 111 -21 2 -2 -98 -279 -221 -617 -124 -337 -233 -637 -243 -665 -10
-29 -22 -53 -27 -53 -10 0 -13 8 -150 370 -64 168 -172 453 -241 635 -69 181
-124 331 -122 332 1 1 46 9 101 18 54 9 102 18 107 21 5 3 7 19 6 35 l-2 29
-273 0 -273 0 0 -34z"/>
<path d="M3486 3453 c1 -15 2 -31 3 -34 1 -3 38 -14 84 -23 45 -10 90 -20 100
-22 16 -5 17 -49 17 -739 l0 -735 -27 -6 c-15 -4 -62 -14 -103 -23 -74 -16
-75 -16 -76 -49 l0 -32 278 0 278 0 0 34 0 33 -86 19 c-47 10 -90 22 -96 25
-8 5 -14 436 -9 657 l1 32 108 0 108 0 255 -400 254 -399 153 -1 152 0 0 33 0
33 -87 17 c-48 9 -90 22 -94 29 -8 14 -64 100 -309 474 -85 130 -158 243 -163
250 -5 9 18 24 78 53 106 52 193 133 233 218 24 52 27 69 27 168 0 96 -3 116
-25 160 -51 104 -168 190 -315 231 -49 14 -120 18 -401 22 l-341 4 3 -29z
m619 -74 c123 -23 206 -83 257 -186 30 -61 33 -75 33 -157 0 -77 -4 -100 -26
-146 -33 -70 -80 -120 -149 -158 -68 -38 -131 -50 -266 -50 l-104 0 -1 34 c0
19 0 171 0 339 0 168 0 312 0 320 1 12 19 15 99 15 54 0 125 -5 157 -11z"/>
</g>
</svg>
